<?xml version="1.0" standalone="no"?><!DOCTYPE svg PUBLIC "-//W3C//DTD SVG 1.1//EN" "http://www.w3.org/Graphics/SVG/1.1/DTD/svg11.dtd"><svg t="1702609123489" class="icon" viewBox="0 0 1024 1024" version="1.1" xmlns="http://www.w3.org/2000/svg" p-id="4681" xmlns:xlink="http://www.w3.org/1999/xlink" width="200" height="200"><path d="M513.943656 0L68.266667 255.403263V768.937729l440.221112 254.721279 445.67699-252.504829V255.403263L513.943656 0" fill="#385EA9" p-id="4682"></path><path d="M909.835764 333.661006l44.329005 437.493173-445.67699 252.504829L158.288645 768.767233l751.547119-435.106227z" fill="#FFFFFF" p-id="4683"></path><path d="M903.697902 340.992341v392.141192L511.55671 954.778555 170.564369 750.18315l733.133533-409.190809m51.148851-85.248085L68.266667 769.278721l439.539127 254.721279L953.482784 767.232767V255.744256z" fill="#385EA9" p-id="4684"></path><path d="M786.567033 461.70363a40.407592 40.407592 0 0 1-20.289044-5.455878L490.756177 296.663337a40.578089 40.578089 0 0 1 40.748585-70.244423l275.351315 159.584416a40.578089 40.578089 0 0 1-20.45954 75.870796z" fill="#FFFFFF" p-id="4685"></path><path d="M324.010922 427.774892a40.578089 40.578089 0 0 1-22.67599-74.336331l187.545787-125.655677a40.578089 40.578089 0 1 1 45.181485 68.198468l-187.545787 125.655678a40.407592 40.407592 0 0 1-22.505495 6.137862z" fill="#FFFFFF" p-id="4686"></path><path d="M555.20373 823.496503a40.578089 40.578089 0 0 1-22.675991-74.33633l184.817849-123.78022a42.794539 42.794539 0 0 1 58.821179 8.865801 40.578089 40.578089 0 0 1-10.741259 56.775225l-187.545788 125.655678a40.407592 40.407592 0 0 1-22.67599 6.819846z" fill="#385EA9" p-id="4687"></path><path d="M554.521745 823.496503a40.407592 40.407592 0 0 1-20.289044-5.114885l-275.351316-159.925408a40.578089 40.578089 0 0 1 40.748585-70.244422l275.351315 159.584416a40.578089 40.578089 0 0 1-20.45954 75.870796zM742.579021 697.840826a40.407592 40.407592 0 0 1-21.994006-6.478855L528.606327 568.09324a40.578089 40.578089 0 0 1 43.988012-68.198468l191.296703 123.268731a40.578089 40.578089 0 0 1-21.994006 74.847819z" fill="#385EA9" p-id="4688"></path><path d="M301.40313 420.955045l44.618848-67.993873 215.660606 141.545921-44.618848 67.993873z" fill="#FFFFFF" p-id="4689"></path><path d="M511.727206 553.260073l7.331335 6.478855L596.804795 514.898435l-35.292707-20.289044-49.784882 58.650682z" fill="#FFFFFF" p-id="4690"></path><path d="M515.648618 561.784882l23.016983 12.275724-9.547785-20.118548-13.469198 7.842824z" fill="#385EA9" p-id="4691"></path></svg>